<svg width="22" height="14" viewBox="0 0 22 14" fill="none" xmlns="http://www.w3.org/2000/svg">
<path d="M6 9.5H16M5 5H5.01M9 5H9.01M13 5H13.01M17 5H17.01M4.2 13H17.8C18.9201 13 19.4802 13 19.908 12.782C20.2843 12.5903 20.5903 12.2843 20.782 11.908C21 11.4802 21 10.9201 21 9.8V4.2C21 3.0799 21 2.51984 20.782 2.09202C20.5903 1.71569 20.2843 1.40973 19.908 1.21799C19.4802 1 18.9201 1 17.8 1H4.2C3.07989 1 2.51984 1 2.09202 1.21799C1.71569 1.40973 1.40973 1.71569 1.21799 2.09202C1 2.51984 1 3.07989 1 4.2V9.8C1 10.9201 1 11.4802 1.21799 11.908C1.40973 12.2843 1.71569 12.5903 2.09202 12.782C2.51984 13 3.0799 13 4.2 13Z" stroke="black" stroke-width="2" stroke-linecap="round" stroke-linejoin="round"/>
</svg>
